<?xml version="1.0" encoding="UTF-8"?>
<svg id="Layer_1" xmlns="http://www.w3.org/2000/svg" version="1.1" xmlns:xlink="http://www.w3.org/1999/xlink" viewBox="0.0 0.0 242.54 129.34">
  <!-- Generator: Adobe Illustrator 30.5.1, SVG Export Plug-In . SVG Version: 2.1.4 Build 3)  -->
  <defs>
    <style>
      .st0 {
        filter: url(#drop-shadow-2);
      }

      .st1 {
        fill: url(#linear-gradient1);
      }

      .st2 {
        filter: url(#drop-shadow-1);
      }

      .st3 {
        fill: #fbb034;
      }

      .st4 {
        fill: #001132;
      }

      .st5 {
        fill: url(#linear-gradient);
      }
    </style>
    <linearGradient id="linear-gradient" x1="134.85" y1="-8.22" x2="52.72" y2="134.04" gradientUnits="userSpaceOnUse">
      <stop offset=".41" stop-color="#00356b"/>
      <stop offset="1" stop-color="#001132"/>
    </linearGradient>
    <linearGradient id="linear-gradient1" x1="199.02" y1="3.47" x2="117.56" y2="144.57" gradientUnits="userSpaceOnUse">
      <stop offset=".41" stop-color="#00356b"/>
      <stop offset="1" stop-color="#001132"/>
    </linearGradient>
    <filter id="drop-shadow-1" x="131.77" y="10.45" width="51" height="65" filterUnits="userSpaceOnUse">
      <feOffset dx="-2.25" dy="4.5"/>
      <feGaussianBlur result="blur" stdDeviation="2.25"/>
      <feFlood flood-color="#000" flood-opacity=".82"/>
      <feComposite in2="blur" operator="in"/>
      <feComposite in="SourceGraphic"/>
    </filter>
    <filter id="drop-shadow-2" x="129.77" y="70.45" width="52" height="64" filterUnits="userSpaceOnUse">
      <feOffset dx="-2.25" dy="4.5"/>
      <feGaussianBlur result="blur1" stdDeviation="2.25"/>
      <feFlood flood-color="#000" flood-opacity=".82"/>
      <feComposite in2="blur1" operator="in"/>
      <feComposite in="SourceGraphic"/>
    </filter>
  </defs>
  <path class="st5" d="M95.72.78v100.04c0,10.12-8.21,18.33-18.33,18.33h0c-10.12,0-18.33-8.21-18.33-18.33V.78h-29.5v98.74c0,21.35,20.11,38.67,41.47,38.67h79.41V.78h-54.71Z"/>
  <path id="Gradient_Fill_1" class="st1" d="M127.46.78v100.49c0,13.02-5.95,25.29-16.08,33.13l-4.89,3.79h87.87V.78h-66.9Z"/>
  <g class="st2">
    <path class="st3" d="M176.25,12.8h-20.2s-8.58-.07-13.34,7.83c-4.77,7.89,1.4,14.48,3.43,15.91s4.96,3.46,18.23,7.5c0,0,7.56,2.22,5.78,7.3s-6.99,4.57-6.99,4.57h-20.33v7.04h20.78s10.99.65,13.53-9.91c2.54-10.57-7.5-14.35-7.5-14.35l-11.75-4.5s-9.59-2.93-9.28-7.43,3.49-6.85,7.43-6.85,20.2.07,20.2.07v-7.17Z"/>
  </g>
  <g id="Stroke">
    <polygon class="st3" points="195.11 138.93 106.49 138.93 110.07 137.43 193.61 137.43 193.61 1.53 127.46 1.53 127.46 .03 195.11 .03 195.11 138.93"/>
  </g>
  <g id="Oribital_Ring">
    <path class="st3" d="M26.65,102.79s-45.78,25.79-17.35,39.55c28.43,13.77,81.25,1.45,81.25,1.45,0,0,64.31-12.39,114.04-46.59,49.73-34.2,30.15-48.78,30.15-48.78,0,0-10.74-10.28-39.1-9.13,0,0,33.03,1.08,37.64,11.83s-5.39,21.46-5.39,21.46c0,0-16.96,27.24-83.71,52.93,0,0-42.94,17.16-71.01,19.5-28.07,2.34-69.7,3.93-70.49-16.26,1.02-12.89,23.96-25.97,23.96-25.97Z"/>
  </g>
  <g class="st0">
    <path class="st3" d="M176.44,73.99s-13.21-2.22-20.97.91-14.99,9.91-16.14,18.91c-1.14,9,2.54,19.57,11.82,25.04s22.24,3.39,25.29,3v-25.96h-17.79v5.74h11.69v14.48s-16.01,2.09-22.36-10.43c-6.35-12.52,4.7-21.52,4.7-21.52,0,0,5.08-6.52,23.76-3.78v-6.39Z"/>
  </g>
  <g>
    <g>
      
      
    </g>
    <g>
      
      
    </g>
    <g>
      
      
    </g>
    <g>
      
      
    </g>
    <g>
      
      
    </g>
    <g>
      
      
    </g>
    <g>
      
      
    </g>
    <g>
      
      
    </g>
    <g>
      
      
    </g>
    <g>
      
      
    </g>
    <g>
      
      
    </g>
    <g>
      
      
    </g>
    <g>
      
      
    </g>
    <g>
      
      
    </g>
    <g>
      
      
    </g>
    <g>
      
      
    </g>
    <g>
      
      
    </g>
    <g>
      
      
    </g>
    <g>
      
      
    </g>
    <g>
      
      
    </g>
    <g>
      
      
    </g>
    <g>
      
      
    </g>
    <g>
      
      
    </g>
  </g>
  <path class="st3" d="M128.19,79.79V0s-14.07,0-32.48,0v100.82c0,10.12-8.21,18.33-18.33,18.33h0c-10.12,0-17.75-9.59-18.33-18.33V0c-12.44,0-24.22,0-33.03,0-.17,27.17-.34,55.14-.51,82.32-.08,13.4-.09,27.7,7.17,39.93,6.43,10.84,19.3,15.6,30.81,17.89,13.27,2.65,27.31,1.05,39.72-4.45,7.79-3.46,14.61-8.99,19.12-16.46,7.15-11.82,5.88-26.17,5.88-39.44ZM50.97,128.63c-14.31-5.13-19.96-20.46-20.09-33.31-.02-2.97,0-61.52,0-90.25h22.88c-.01,16.87,0,50.13,0,50.13-.22,12.34-.25,25.98.11,38.39-.27,10.24,2.53,23.26,12.64,28.46,3.06,1.81,7.01,2.78,12.13,2.12.29-.04.53-.06.8-.1-7.71,6-18.95,7.97-28.47,4.56ZM123.22,100.83c-1.1,17.02-14.58,28.76-31.37,34.17-7.37,1.51-16.46,2.3-23.74-.45-.12-.05.12-.22.6-.51,3.22-.41,6.42-1.15,9.54-2.23,3.88-1.68,7.48-4.01,10.55-6.8,8.91-7.77,12.72-21.03,11.91-30.82V5.07h22.49c0,29.66.03,86.89.03,95.76Z"/>
</svg>