<?xml version="1.0" encoding="UTF-8"?>
<svg id="Layer_1" xmlns="http://www.w3.org/2000/svg" version="1.1" xmlns:xlink="http://www.w3.org/1999/xlink" viewBox="0 0 313.5 313.5">
  <!-- Generator: Adobe Illustrator 30.5.1, SVG Export Plug-In . SVG Version: 2.1.4 Build 3)  -->
  <defs>
    <style>
      .st0 {
        fill: url(#radial-gradient5);
      }

      .st0, .st1, .st2, .st3, .st4, .st5, .st6, .st7, .st8 {
        isolation: isolate;
      }

      .st0, .st2, .st3, .st4, .st6, .st7 {
        mix-blend-mode: screen;
      }

      .st9 {
        filter: url(#drop-shadow-2);
      }

      .st1 {
        fill: url(#radial-gradient4);
      }

      .st1, .st8 {
        mix-blend-mode: color-dodge;
      }

      .st10 {
        fill: url(#linear-gradient1);
      }

      .st2 {
        fill: url(#radial-gradient);
      }

      .st3 {
        fill: url(#radial-gradient1);
      }

      .st11 {
        fill: none;
      }

      .st12 {
        fill: #e5e5e5;
      }

      .st13 {
        filter: url(#drop-shadow-1);
      }

      .st14 {
        fill: #efefee;
      }

      .st4 {
        fill: url(#radial-gradient6);
      }

      .st6 {
        fill: url(#radial-gradient7);
      }

      .st7 {
        fill: url(#radial-gradient3);
      }

      .st15 {
        fill: #fbb034;
      }

      .st16 {
        filter: url(#drop-shadow-3);
      }

      .st17 {
        fill: #001132;
      }

      .st8 {
        fill: url(#radial-gradient2);
      }

      .st18 {
        fill: url(#linear-gradient);
      }

      .st19 {
        clip-path: url(#clippath);
      }
    </style>
    <linearGradient id="linear-gradient" x1="177.58" y1="253.38" x2="95.54" y2="111.28" gradientTransform="translate(0 316) scale(1 -1)" gradientUnits="userSpaceOnUse">
      <stop offset=".41" stop-color="#00356b"/>
      <stop offset="1" stop-color="#001132"/>
    </linearGradient>
    <linearGradient id="linear-gradient1" x1="412.09" y1="537.88" x2="86.22" y2="-26.54" gradientTransform="translate(0 316) scale(1 -1)" gradientUnits="userSpaceOnUse">
      <stop offset=".41" stop-color="#00356b"/>
      <stop offset="1" stop-color="#001132"/>
    </linearGradient>
    <filter id="drop-shadow-1" x="139" y="69" width="103" height="152">
      <feOffset dx="-2.25" dy="4.5"/>
      <feGaussianBlur result="blur" stdDeviation="2.25"/>
      <feFlood flood-color="#000" flood-opacity=".82"/>
      <feComposite in2="blur" operator="in"/>
      <feComposite in="SourceGraphic"/>
    </filter>
    <filter id="drop-shadow-2" x="174" y="81" width="51" height="65">
      <feOffset dx="-2.25" dy="4.5"/>
      <feGaussianBlur result="blur1" stdDeviation="2.25"/>
      <feFlood flood-color="#000" flood-opacity=".82"/>
      <feComposite in2="blur1" operator="in"/>
      <feComposite in="SourceGraphic"/>
    </filter>
    <clipPath id="clippath">
      <rect class="st11" x="242.18" y="91.21" width="43.75" height="43.84"/>
    </clipPath>
    <radialGradient id="radial-gradient" cx="263.96" cy="202.8" fx="263.96" fy="202.8" r="6.71" gradientTransform="translate(0 316) scale(1 -1)" gradientUnits="userSpaceOnUse">
      <stop offset="0" stop-color="#fff"/>
      <stop offset="0" stop-color="#fffcf7"/>
      <stop offset=".03" stop-color="#fff6e1"/>
      <stop offset=".05" stop-color="#ffecbe"/>
      <stop offset=".07" stop-color="#ffde8d"/>
      <stop offset=".1" stop-color="#ffcd4e"/>
      <stop offset=".13" stop-color="#ffb803"/>
      <stop offset=".13" stop-color="#ffb700"/>
      <stop offset=".14" stop-color="#ffa400"/>
      <stop offset=".15" stop-color="#ff9100"/>
      <stop offset=".15" stop-color="#f48a00"/>
      <stop offset=".17" stop-color="#d77a00"/>
      <stop offset=".18" stop-color="#cd7400"/>
      <stop offset=".25" stop-color="#a95f00"/>
      <stop offset=".34" stop-color="#7c4600"/>
      <stop offset=".43" stop-color="#563000"/>
      <stop offset=".53" stop-color="#361f00"/>
      <stop offset=".63" stop-color="#1e1100"/>
      <stop offset=".74" stop-color="#0d0700"/>
      <stop offset=".86" stop-color="#030100"/>
      <stop offset="1" stop-color="#000"/>
    </radialGradient>
    <radialGradient id="radial-gradient1" cx="4520.17" cy="925.15" fx="4520.17" fy="925.15" r="2.03" gradientTransform="translate(-5830.5454 4076.9728) rotate(45) scale(.3333 -7.6877)" gradientUnits="userSpaceOnUse">
      <stop offset="0" stop-color="#fff"/>
      <stop offset=".02" stop-color="#fffcf7"/>
      <stop offset=".06" stop-color="#fff6e1"/>
      <stop offset=".1" stop-color="#ffecbe"/>
      <stop offset=".15" stop-color="#ffde8d"/>
      <stop offset=".2" stop-color="#ffcd4e"/>
      <stop offset=".26" stop-color="#ffb803"/>
      <stop offset=".26" stop-color="#ffb700"/>
      <stop offset=".29" stop-color="#ffa400"/>
      <stop offset=".31" stop-color="#ff9100"/>
      <stop offset=".36" stop-color="#d37800"/>
      <stop offset=".43" stop-color="#a25c00"/>
      <stop offset=".49" stop-color="#764300"/>
      <stop offset=".56" stop-color="#522e00"/>
      <stop offset=".63" stop-color="#341d00"/>
      <stop offset=".71" stop-color="#1d1000"/>
      <stop offset=".79" stop-color="#0c0700"/>
      <stop offset=".88" stop-color="#030100"/>
      <stop offset="1" stop-color="#000"/>
    </radialGradient>
    <radialGradient id="radial-gradient2" cx="10643.05" cy="925.15" fx="10643.05" fy="925.15" r="1.57" gradientTransform="translate(-5672.0059 4235.5163) rotate(45) scale(.1205 -7.6877)" gradientUnits="userSpaceOnUse">
      <stop offset="0" stop-color="#fff"/>
      <stop offset=".02" stop-color="#fffcf7"/>
      <stop offset=".06" stop-color="#fff6e1"/>
      <stop offset=".1" stop-color="#ffecbe"/>
      <stop offset=".15" stop-color="#ffde8d"/>
      <stop offset=".2" stop-color="#ffcd4e"/>
      <stop offset=".26" stop-color="#ffb803"/>
      <stop offset=".26" stop-color="#ffb700"/>
      <stop offset=".29" stop-color="#ffa400"/>
      <stop offset=".31" stop-color="#ff9100"/>
      <stop offset=".36" stop-color="#d37800"/>
      <stop offset=".43" stop-color="#a25c00"/>
      <stop offset=".49" stop-color="#764300"/>
      <stop offset=".56" stop-color="#522e00"/>
      <stop offset=".63" stop-color="#341d00"/>
      <stop offset=".71" stop-color="#1d1000"/>
      <stop offset=".79" stop-color="#0c0700"/>
      <stop offset=".88" stop-color="#030100"/>
      <stop offset="1" stop-color="#000"/>
    </radialGradient>
    <radialGradient id="radial-gradient3" cx="1429.45" cy="1112.75" fx="1429.45" fy="1112.75" r="2.02" gradientTransform="translate(-4707.4167 -5382.8077) rotate(135) scale(.2595 -6.6516)" gradientUnits="userSpaceOnUse">
      <stop offset="0" stop-color="#fff"/>
      <stop offset=".02" stop-color="#fffcf7"/>
      <stop offset=".06" stop-color="#fff6e1"/>
      <stop offset=".1" stop-color="#ffecbe"/>
      <stop offset=".15" stop-color="#ffde8d"/>
      <stop offset=".2" stop-color="#ffcd4e"/>
      <stop offset=".26" stop-color="#ffb803"/>
      <stop offset=".26" stop-color="#ffb700"/>
      <stop offset=".29" stop-color="#ffa400"/>
      <stop offset=".31" stop-color="#ff9100"/>
      <stop offset=".36" stop-color="#d37800"/>
      <stop offset=".43" stop-color="#a25c00"/>
      <stop offset=".49" stop-color="#764300"/>
      <stop offset=".56" stop-color="#522e00"/>
      <stop offset=".63" stop-color="#341d00"/>
      <stop offset=".71" stop-color="#1d1000"/>
      <stop offset=".79" stop-color="#0c0700"/>
      <stop offset=".88" stop-color="#030100"/>
      <stop offset="1" stop-color="#000"/>
    </radialGradient>
    <radialGradient id="radial-gradient4" cx="2104.7" cy="1112.75" fx="2104.7" fy="1112.75" r="1.57" gradientTransform="translate(-4830.2951 -5259.9254) rotate(135) scale(.0938 -6.6516)" gradientUnits="userSpaceOnUse">
      <stop offset="0" stop-color="#fff"/>
      <stop offset=".02" stop-color="#fffcf7"/>
      <stop offset=".06" stop-color="#fff6e1"/>
      <stop offset=".1" stop-color="#ffecbe"/>
      <stop offset=".15" stop-color="#ffde8d"/>
      <stop offset=".2" stop-color="#ffcd4e"/>
      <stop offset=".26" stop-color="#ffb803"/>
      <stop offset=".26" stop-color="#ffb700"/>
      <stop offset=".29" stop-color="#ffa400"/>
      <stop offset=".31" stop-color="#ff9100"/>
      <stop offset=".36" stop-color="#d37800"/>
      <stop offset=".43" stop-color="#a25c00"/>
      <stop offset=".49" stop-color="#764300"/>
      <stop offset=".56" stop-color="#522e00"/>
      <stop offset=".63" stop-color="#341d00"/>
      <stop offset=".71" stop-color="#1d1000"/>
      <stop offset=".79" stop-color="#0c0700"/>
      <stop offset=".88" stop-color="#030100"/>
      <stop offset="1" stop-color="#000"/>
    </radialGradient>
    <radialGradient id="radial-gradient5" cx="263.87" cy="202.8" fx="263.87" fy="202.8" r="14.58" gradientTransform="translate(0 316) scale(1 -1)" gradientUnits="userSpaceOnUse">
      <stop offset="0" stop-color="#fff"/>
      <stop offset=".03" stop-color="#fffefc"/>
      <stop offset=".05" stop-color="#fffbf4"/>
      <stop offset=".07" stop-color="#fff7e5"/>
      <stop offset=".09" stop-color="#fff2d1"/>
      <stop offset=".1" stop-color="#ffeab7"/>
      <stop offset=".11" stop-color="#ffe196"/>
      <stop offset=".12" stop-color="#ffd670"/>
      <stop offset=".14" stop-color="#ffca43"/>
      <stop offset=".15" stop-color="#ffbc12"/>
      <stop offset=".15" stop-color="#ffb700"/>
      <stop offset=".18" stop-color="#ffa400"/>
      <stop offset=".2" stop-color="#ff9100"/>
      <stop offset=".23" stop-color="#ea8500"/>
      <stop offset=".28" stop-color="#b96900"/>
      <stop offset=".34" stop-color="#8d5000"/>
      <stop offset=".4" stop-color="#673a00"/>
      <stop offset=".47" stop-color="#472800"/>
      <stop offset=".54" stop-color="#2d1900"/>
      <stop offset=".62" stop-color="#190e00"/>
      <stop offset=".71" stop-color="#0a0600"/>
      <stop offset=".82" stop-color="#020100"/>
      <stop offset="1" stop-color="#000"/>
    </radialGradient>
    <radialGradient id="radial-gradient6" cx="-2225.24" cy="280.14" fx="-2225.24" fy="280.14" r="10.99" gradientTransform="translate(-231.98 257.84) rotate(90) scale(.06 -1.77)" gradientUnits="userSpaceOnUse">
      <stop offset="0" stop-color="#fff"/>
      <stop offset=".02" stop-color="#fffcf7"/>
      <stop offset=".06" stop-color="#fff6e1"/>
      <stop offset=".1" stop-color="#ffecbe"/>
      <stop offset=".15" stop-color="#ffde8d"/>
      <stop offset=".2" stop-color="#ffcd4e"/>
      <stop offset=".26" stop-color="#ffb803"/>
      <stop offset=".26" stop-color="#ffb700"/>
      <stop offset=".29" stop-color="#ffa400"/>
      <stop offset=".31" stop-color="#ff9100"/>
      <stop offset=".36" stop-color="#d37800"/>
      <stop offset=".43" stop-color="#a25c00"/>
      <stop offset=".49" stop-color="#764300"/>
      <stop offset=".56" stop-color="#522e00"/>
      <stop offset=".63" stop-color="#341d00"/>
      <stop offset=".71" stop-color="#1d1000"/>
      <stop offset=".79" stop-color="#0c0700"/>
      <stop offset=".88" stop-color="#030100"/>
      <stop offset="1" stop-color="#000"/>
    </radialGradient>
    <radialGradient id="radial-gradient7" cx="-31262.49" cy="287.33" fx="-31262.49" fy="287.33" r="11.01" gradientTransform="translate(-1768.1917 -395.3759) scale(-.065 1.77)" gradientUnits="userSpaceOnUse">
      <stop offset="0" stop-color="#fff"/>
      <stop offset=".02" stop-color="#fffcf7"/>
      <stop offset=".06" stop-color="#fff6e1"/>
      <stop offset=".1" stop-color="#ffecbe"/>
      <stop offset=".15" stop-color="#ffde8d"/>
      <stop offset=".2" stop-color="#ffcd4e"/>
      <stop offset=".26" stop-color="#ffb803"/>
      <stop offset=".26" stop-color="#ffb700"/>
      <stop offset=".29" stop-color="#ffa400"/>
      <stop offset=".31" stop-color="#ff9100"/>
      <stop offset=".36" stop-color="#d37800"/>
      <stop offset=".43" stop-color="#a25c00"/>
      <stop offset=".49" stop-color="#764300"/>
      <stop offset=".56" stop-color="#522e00"/>
      <stop offset=".63" stop-color="#341d00"/>
      <stop offset=".71" stop-color="#1d1000"/>
      <stop offset=".79" stop-color="#0c0700"/>
      <stop offset=".88" stop-color="#030100"/>
      <stop offset="1" stop-color="#000"/>
    </radialGradient>
    <filter id="drop-shadow-3" x="33" y="107" width="253" height="125">
      <feOffset dx="-2.25" dy="4.5"/>
      <feGaussianBlur result="blur2" stdDeviation="2.25"/>
      <feFlood flood-color="#000" flood-opacity=".82"/>
      <feComposite in2="blur2" operator="in"/>
      <feComposite in="SourceGraphic"/>
    </filter>
  </defs>
  <g class="st5">
    <g id="Layer_11" data-name="Layer_1">
      <rect class="st17" width="313.5" height="313.5"/>
      <path class="st18" d="M137.95,71.33v100.04c0,10.12-8.21,18.33-18.33,18.33h0c-10.12,0-18.33-8.21-18.33-18.33v-100.04h-28.19v98.74c0,21.35,18.8,38.67,40.16,38.67h79.41V71.33h-54.72Z"/>
      <path id="Gradient_Fill_1" class="st10" d="M169.69,71.33v100.49c0,13.02-5.95,25.29-16.08,33.13l-4.89,3.79h87.87V71.33h-66.9Z"/>
      <g class="st13">
        <path class="st15" d="M218.48,83.35h-20.2s-8.58-.07-13.34,7.83c-4.77,7.89,1.4,14.48,3.43,15.91s4.96,3.46,18.23,7.5c0,0,7.56,2.22,5.78,7.3s-6.99,4.57-6.99,4.57h-20.33v7.04h20.78s10.99.65,13.53-9.91c2.54-10.57-7.5-14.35-7.5-14.35l-11.75-4.5s-9.59-2.93-9.28-7.43,3.49-6.85,7.43-6.85,20.2.07,20.2.07v-7.17h.01Z"/>
      </g>
      <g id="Stroke">
        <polygon class="st15" points="237.34 209.48 148.72 209.48 152.3 207.98 235.84 207.98 235.84 72.08 169.69 72.08 169.69 70.58 237.34 70.58 237.34 209.48"/>
      </g>
      <path id="Oribital_Ring" class="st15" d="M68.88,173.34s-45.78,25.79-17.35,39.55c28.43,13.77,81.25,1.45,81.25,1.45,0,0,64.31-12.39,114.04-46.59s30.15-48.78,30.15-48.78c0,0-10.74-10.28-39.1-9.13,0,0,33.03,1.08,37.64,11.83,4.61,10.75-5.39,21.46-5.39,21.46,0,0-16.96,27.24-83.71,52.93,0,0-42.94,17.16-71.01,19.5s-69.7,3.93-70.49-16.26c1.02-12.89,23.96-25.97,23.96-25.97h0Z"/>
      <g class="st9">
        <path class="st15" d="M218.67,144.54s-13.21-2.22-20.97.91-14.99,9.91-16.14,18.91c-1.14,9,2.54,19.57,11.82,25.04s22.24,3.39,25.29,3v-25.96h-17.79v5.74h11.69v14.48s-16.01,2.09-22.36-10.43c-6.35-12.52,4.7-21.52,4.7-21.52,0,0,5.08-6.52,23.76-3.78v-6.39h0Z"/>
      </g>
      <g>
        <g>
          <path class="st14" d="M60.07,250.86h-1.15l-1.38-2.31c-.13-.21-.25-.4-.37-.55-.12-.15-.24-.27-.36-.37-.12-.1-.26-.17-.4-.21-.14-.04-.31-.07-.48-.07h-.79v3.5h-.96v-8.23h2.46c.36,0,.69.04,1,.13.3.09.57.23.79.41.22.18.4.41.53.69s.19.59.19.96c0,.29-.04.55-.13.79-.09.24-.21.45-.37.64s-.35.35-.57.48c-.22.13-.48.23-.75.31v.02c.14.06.26.13.36.21.1.08.2.17.29.28s.18.23.27.36c.09.14.19.29.3.47l1.54,2.47-.02.02ZM55.14,243.51v2.98h1.31c.24,0,.46-.04.67-.11.2-.07.38-.18.53-.31s.27-.3.35-.5c.08-.2.13-.42.13-.66,0-.44-.14-.78-.43-1.03-.28-.25-.7-.37-1.24-.37,0,0-1.32,0-1.32,0Z"/>
          <path class="st12" d="M60.75,251.24h-2.04l-1.49-2.49c-.12-.2-.23-.37-.34-.51-.1-.13-.2-.23-.3-.3-.09-.07-.18-.12-.28-.15-.11-.03-.23-.05-.37-.05h-.42v3.5h-1.71v-8.98h2.83c.39,0,.76.05,1.1.15.35.1.66.27.92.48.27.22.48.49.63.82.15.32.22.7.22,1.12,0,.33-.05.64-.15.92-.1.28-.25.53-.43.75-.19.22-.41.41-.67.56-.05.03-.11.06-.16.09.05.05.1.1.15.16.1.12.2.25.3.4.09.14.19.3.31.48l1.9,3.04h0ZM59.14,250.49h.26l-1.19-1.9c-.11-.18-.21-.33-.3-.47-.08-.12-.16-.23-.24-.33-.07-.09-.15-.16-.23-.23-.08-.06-.17-.11-.28-.16l-.06-.03c.13.11.26.24.38.4.13.16.26.36.4.59l1.27,2.12h-.01ZM54.55,250.49h.21v-3.5h1.17c.22,0,.42.03.59.08.14.04.28.11.41.19v-.44c-.16.03-.32.05-.49.05h-1.68v-3.73h1.69c.63,0,1.13.16,1.48.46.37.32.56.76.56,1.31,0,.29-.05.57-.16.81-.11.25-.25.46-.44.63-.06.06-.13.11-.2.16.06-.03.12-.06.17-.09.19-.11.35-.24.48-.4.13-.15.23-.33.3-.52.07-.2.11-.42.11-.66,0-.31-.05-.58-.15-.8-.1-.22-.24-.4-.42-.55-.18-.15-.41-.27-.66-.34-.27-.08-.57-.12-.89-.12h-2.08v7.48-.02ZM55.51,246.12h.93c.2,0,.38-.03.54-.09s.29-.14.4-.24.19-.22.26-.37c.06-.15.1-.32.1-.52,0-.33-.1-.57-.3-.75-.21-.18-.55-.28-.99-.28h-.94v2.25Z"/>
        </g>
        <g>
          <path class="st14" d="M68.1,250.86h-4.36v-8.23h4.18v.87h-3.21v2.74h2.97v.87h-2.97v2.88h3.4v.87h-.01Z"/>
          <path class="st12" d="M68.48,251.24h-5.11v-8.98h4.93v1.62h-3.21v1.99h2.97v1.62h-2.97v2.13h3.4v1.62h-.01ZM64.12,250.49h3.61v-.12h-3.4v-3.63h2.97v-.12h-2.97v-3.49h3.21v-.12h-3.43v7.48h.01Z"/>
        </g>
        <g>
          <path class="st14" d="M77.11,243.51h-2.38v7.36h-.96v-7.36h-2.37v-.87h5.71v.87Z"/>
          <path class="st12" d="M75.11,251.24h-1.71v-7.36h-2.37v-1.62h6.46v1.62h-2.38v7.36ZM74.15,250.49h.21v-7.36h2.38v-.12h-4.96v.12h2.37v7.36Z"/>
        </g>
        <g>
          <path class="st14" d="M86.43,250.86h-1.07l-.87-2.31h-3.49l-.82,2.31h-1.07l3.16-8.23h1l3.17,8.23h-.01ZM84.17,247.69l-1.29-3.51c-.04-.11-.08-.3-.13-.55h-.02c-.04.23-.08.42-.13.55l-1.28,3.51s2.85,0,2.85,0Z"/>
          <path class="st12" d="M86.97,251.24h-1.87l-.87-2.31h-2.96l-.82,2.31h-1.88l3.44-8.98h1.51l3.46,8.98h-.01ZM85.62,250.49h.26l-2.88-7.48h-.48l-.1.25h.63l.08.31c.05.28.09.42.11.48l1.48,4.01h-3.93l1.46-4.01c.04-.11.08-.27.11-.48l.04-.27-2.75,7.18h.26l.82-2.31h4.01l.87,2.31h0ZM81.86,247.32h1.78l-.89-2.42-.88,2.42h-.01Z"/>
        </g>
        <g>
          <path class="st14" d="M91.14,250.86h-.96v-8.23h.96v8.23Z"/>
          <path class="st12" d="M91.51,251.24h-1.71v-8.98h1.71v8.98ZM90.55,250.49h.21v-7.48h-.21v7.48Z"/>
        </g>
        <g>
          <path class="st14" d="M100.11,250.86h-4.27v-8.23h.96v7.36h3.3v.87h0Z"/>
          <path class="st12" d="M100.48,251.24h-5.02v-8.98h1.71v7.36h3.3v1.62h0ZM96.21,250.49h3.52v-.12h-3.3v-7.36h-.21v7.48h0Z"/>
        </g>
        <g>
          <path class="st14" d="M109.28,250.53v-1.14c.13.11.29.22.47.31s.37.17.57.23.4.11.61.15c.2.03.39.05.56.05.59,0,1.04-.11,1.33-.33s.44-.54.44-.95c0-.22-.05-.42-.15-.58s-.23-.31-.4-.45-.38-.27-.61-.39c-.24-.12-.49-.26-.76-.39-.29-.15-.55-.29-.8-.44-.25-.15-.46-.31-.65-.49-.18-.18-.33-.38-.43-.61-.11-.23-.16-.49-.16-.8,0-.38.08-.7.25-.98.16-.28.38-.51.65-.69.27-.18.57-.31.92-.4.34-.09.69-.13,1.05-.13.81,0,1.4.1,1.77.29v1.08c-.49-.34-1.11-.5-1.87-.5-.21,0-.42.02-.63.07-.21.04-.4.12-.56.22-.16.1-.3.23-.4.38-.1.16-.15.35-.15.57s.04.39.12.55c.08.15.19.29.35.42.15.13.34.25.56.37s.47.25.76.39c.29.15.57.3.84.46s.5.34.69.53c.2.2.36.41.47.65.12.24.18.51.18.81,0,.41-.08.75-.24,1.03-.16.28-.37.51-.64.69-.27.18-.58.3-.93.38s-.72.12-1.11.12c-.13,0-.29,0-.48-.03s-.39-.05-.59-.09-.39-.09-.57-.15-.32-.13-.43-.2h-.03Z"/>
          <path class="st12" d="M111.34,251.38c-.15,0-.32,0-.52-.03s-.41-.06-.62-.1c-.21-.04-.42-.1-.61-.16-.21-.07-.38-.15-.52-.24l-.16-.11v-2.17l.62.55c.11.09.24.18.39.26.16.08.34.15.52.21.18.06.37.1.56.13.18.03.35.05.5.05.51,0,.88-.09,1.1-.25.2-.15.29-.35.29-.65,0-.15-.03-.28-.09-.39-.07-.12-.18-.24-.31-.35-.15-.12-.34-.24-.55-.35-.23-.12-.49-.25-.75-.39-.29-.15-.57-.3-.83-.45-.27-.16-.52-.35-.72-.55-.22-.21-.39-.45-.51-.72-.13-.28-.19-.6-.19-.96,0-.44.1-.83.3-1.17.19-.32.45-.6.76-.81.3-.2.65-.36,1.03-.45.37-.1.75-.14,1.14-.14.88,0,1.52.11,1.95.34l.2.11v2.03l-.59-.41c-.42-.29-.98-.44-1.66-.44-.18,0-.37.02-.55.06-.17.04-.32.09-.44.17-.12.07-.21.16-.28.27-.06.1-.09.22-.09.37s.03.28.08.37c.05.11.14.21.25.3.13.11.3.22.5.33.22.12.47.24.75.38.31.15.6.31.87.48.29.17.54.37.76.59.23.22.41.48.55.75.14.29.21.62.21.98,0,.47-.1.88-.29,1.21s-.44.61-.76.82c-.31.2-.66.35-1.06.43-.38.08-.78.13-1.19.13l-.04-.03ZM109.66,250.31c.05.02.11.04.17.06.16.05.34.1.52.14.19.04.37.07.55.09.18.02.32.03.44.03.36,0,.71-.04,1.03-.11.31-.07.58-.18.81-.33.22-.14.39-.33.52-.56.13-.22.19-.51.19-.85,0-.25-.05-.46-.14-.65-.1-.2-.23-.38-.4-.55-.18-.17-.39-.34-.63-.48-.25-.15-.52-.3-.81-.44s-.55-.28-.77-.4c-.24-.13-.45-.27-.62-.41-.19-.16-.34-.34-.44-.54-.11-.21-.16-.45-.16-.72,0-.3.07-.56.22-.78.13-.2.31-.37.52-.5.2-.12.43-.21.68-.26.23-.05.47-.07.71-.07.56,0,1.06.09,1.5.26v-.21c-.26-.09-.69-.17-1.4-.17-.32,0-.64.04-.95.12-.3.08-.57.19-.8.35-.22.15-.4.33-.53.57-.13.22-.19.48-.19.79,0,.25.04.47.12.64.09.19.2.35.36.5.16.16.36.31.58.44.24.14.5.29.78.43.27.14.53.27.77.4.25.13.48.28.67.43.21.16.37.35.49.55.13.22.2.48.2.77,0,.53-.2.96-.59,1.25-.36.27-.87.41-1.55.41-.19,0-.4-.02-.63-.06-.22-.04-.44-.09-.65-.16-.19-.06-.38-.13-.55-.22v.23h-.02Z"/>
        </g>
        <g>
          <path class="st14" d="M119.41,250.86h-.96v-8.23h.96v8.23Z"/>
          <path class="st12" d="M119.78,251.24h-1.71v-8.98h1.71v8.98ZM118.82,250.49h.21v-7.48h-.21v7.48Z"/>
        </g>
        <g>
          <path class="st14" d="M130.26,250.3c-.83.47-1.74.7-2.75.7-1.17,0-2.12-.38-2.85-1.14s-1.09-1.76-1.09-3.01.4-2.32,1.21-3.14c.81-.82,1.83-1.22,3.06-1.22.9,0,1.65.15,2.25.44v1.07c-.67-.42-1.45-.63-2.36-.63s-1.68.32-2.27.95c-.59.64-.88,1.46-.88,2.47s.27,1.86.82,2.45,1.29.89,2.23.89c.64,0,1.2-.13,1.67-.38v-2.31h-1.8v-.87h2.77v3.73h-.01Z"/>
          <path class="st12" d="M127.51,251.38c-1.28,0-2.32-.42-3.12-1.25-.79-.83-1.19-1.92-1.19-3.27s.44-2.51,1.32-3.4c.87-.89,1.99-1.34,3.33-1.34.95,0,1.76.16,2.42.47l.21.1v1.98l-.58-.36c-.6-.38-1.33-.57-2.16-.57s-1.47.27-1.99.83c-.53.57-.78,1.29-.78,2.21s.24,1.68.72,2.2,1.11.77,1.95.77c.49,0,.92-.08,1.29-.24v-1.7h-1.8v-1.62h3.52v4.32l-.19.11c-.88.5-1.87.75-2.94.75h-.01ZM127.84,242.87c-1.14,0-2.06.36-2.79,1.11-.74.75-1.1,1.69-1.1,2.87s.32,2.06.98,2.75,1.5,1.02,2.58,1.02c.86,0,1.66-.18,2.38-.55v-3.13h-2.02v.12h1.8v2.9l-.2.11c-.52.29-1.15.43-1.85.43-1.04,0-1.88-.34-2.5-1.01-.61-.66-.92-1.57-.92-2.71s.33-2.02.98-2.72c.66-.71,1.52-1.07,2.54-1.07.73,0,1.4.13,1.99.39v-.2c-.52-.2-1.15-.31-1.88-.31h0Z"/>
        </g>
        <g>
          <path class="st14" d="M141.34,250.86h-1.18l-4.23-6.56c-.11-.16-.2-.34-.26-.52h-.03c.03.18.05.55.05,1.13v5.94h-.96v-8.23h1.25l4.12,6.45c.17.27.28.45.33.55h.02c-.04-.24-.06-.64-.06-1.21v-5.79h.96v8.23h-.01Z"/>
          <path class="st12" d="M141.72,251.24h-1.76l-3.91-6.05v6.05h-1.71v-8.98h1.83l3.84,6.01v-6.01h1.71v8.98ZM140.36,250.49h.6v-7.48h-.21v5.42c0,.55.02.93.05,1.15l.07.43h-.67l-.13-.21c-.03-.06-.11-.2-.31-.52l-4.01-6.28h-.67v7.48h.21v-5.57c0-.73-.03-.98-.04-1.07l-.08-.44h.74l.09.24c.06.15.14.3.23.45l4.12,6.39h0Z"/>
        </g>
        <g>
          <path class="st14" d="M152.4,250.86h-1.07l-.87-2.31h-3.49l-.82,2.31h-1.07l3.16-8.23h1l3.17,8.23h0ZM150.15,247.69l-1.29-3.51c-.04-.11-.08-.3-.13-.55h-.02c-.04.23-.08.42-.13.55l-1.28,3.51h2.85Z"/>
          <path class="st12" d="M152.95,251.24h-1.87l-.87-2.31h-2.96l-.82,2.31h-1.88l3.44-8.98h1.51l3.46,8.98h0ZM151.6,250.49h.26l-2.88-7.48h-.48l-.1.25h.63l.08.31c.05.28.09.42.11.48l1.48,4.01h-3.93l1.46-4.01c.04-.11.08-.27.11-.48l.04-.27-2.75,7.18h.26l.82-2.31h4.01l.87,2.31h.01ZM147.83,247.32h1.78l-.89-2.42-.88,2.42h0Z"/>
        </g>
        <g>
          <path class="st14" d="M162.15,250.3c-.83.47-1.74.7-2.75.7-1.17,0-2.12-.38-2.85-1.14-.72-.76-1.09-1.76-1.09-3.01s.4-2.32,1.21-3.14c.81-.82,1.83-1.22,3.06-1.22.9,0,1.65.15,2.25.44v1.07c-.67-.42-1.45-.63-2.36-.63s-1.68.32-2.27.95c-.59.64-.88,1.46-.88,2.47s.27,1.86.82,2.45,1.29.89,2.23.89c.64,0,1.2-.13,1.67-.38v-2.31h-1.8v-.87h2.77v3.73h0Z"/>
          <path class="st12" d="M159.4,251.38c-1.27,0-2.32-.42-3.12-1.25-.79-.83-1.19-1.92-1.19-3.27s.44-2.51,1.32-3.4c.87-.89,1.99-1.34,3.33-1.34.95,0,1.76.16,2.42.47l.21.1v1.98l-.58-.36c-.6-.38-1.33-.57-2.16-.57s-1.47.27-1.99.83c-.53.57-.78,1.29-.78,2.21s.24,1.68.72,2.2,1.11.77,1.95.77c.49,0,.92-.08,1.29-.24v-1.7h-1.8v-1.62h3.52v4.32l-.19.11c-.88.5-1.87.75-2.94.75h0ZM159.73,242.87c-1.14,0-2.06.36-2.79,1.11-.74.75-1.1,1.69-1.1,2.87s.32,2.06.98,2.75c.66.69,1.5,1.02,2.58,1.02.86,0,1.66-.18,2.38-.55v-3.13h-2.02v.12h1.8v2.9l-.2.11c-.52.29-1.15.43-1.85.43-1.04,0-1.88-.34-2.5-1.01-.61-.66-.92-1.57-.92-2.71s.33-2.02.98-2.72c.66-.71,1.52-1.07,2.54-1.07.73,0,1.4.13,1.99.39v-.2c-.52-.2-1.15-.31-1.88-.31h.01Z"/>
        </g>
        <g>
          <path class="st14" d="M170.96,250.86h-4.36v-8.23h4.18v.87h-3.21v2.74h2.97v.87h-2.97v2.88h3.4v.87h0Z"/>
          <path class="st12" d="M171.33,251.24h-5.11v-8.98h4.93v1.62h-3.21v1.99h2.97v1.62h-2.97v2.13h3.4v1.62h0ZM166.97,250.49h3.61v-.12h-3.4v-3.63h2.97v-.12h-2.97v-3.49h3.21v-.12h-3.43v7.48h0Z"/>
        </g>
        <g>
          <path class="st14" d="M180.45,250.53v-1.14c.13.11.29.22.47.31s.37.17.57.23c.2.06.4.11.61.15s.39.05.56.05c.59,0,1.04-.11,1.33-.33.29-.22.44-.54.44-.95,0-.22-.05-.42-.15-.58-.1-.16-.23-.31-.4-.45s-.38-.27-.61-.39c-.24-.12-.49-.26-.76-.39-.29-.15-.55-.29-.8-.44-.25-.15-.46-.31-.65-.49-.18-.18-.33-.38-.43-.61s-.16-.49-.16-.8c0-.38.08-.7.25-.98s.38-.51.65-.69c.27-.18.57-.31.92-.4.34-.09.69-.13,1.05-.13.81,0,1.4.1,1.77.29v1.08c-.49-.34-1.11-.5-1.87-.5-.21,0-.42.02-.63.07-.21.04-.4.12-.56.22s-.3.23-.4.38c-.1.16-.15.35-.15.57s.04.39.12.55c.08.15.19.29.35.42s.34.25.56.37.47.25.76.39c.29.15.57.3.84.46s.5.34.69.53c.2.2.36.41.47.65.12.24.18.51.18.81,0,.41-.08.75-.24,1.03s-.37.51-.64.69c-.27.18-.58.3-.93.38s-.72.12-1.11.12c-.13,0-.29,0-.48-.03s-.39-.05-.59-.09-.39-.09-.57-.15c-.18-.06-.32-.13-.43-.2h-.03Z"/>
          <path class="st12" d="M182.51,251.38c-.15,0-.32,0-.52-.03s-.41-.06-.62-.1c-.21-.04-.42-.1-.61-.16-.21-.07-.38-.15-.52-.24l-.16-.11v-2.17l.62.55c.1.09.24.18.39.26.16.08.34.15.52.21.18.06.37.1.56.13.18.03.35.05.5.05.51,0,.88-.09,1.1-.25.2-.15.29-.35.29-.65,0-.15-.03-.28-.09-.39-.07-.12-.18-.24-.31-.35-.15-.12-.34-.24-.55-.35-.23-.12-.49-.25-.75-.39-.29-.15-.57-.3-.83-.45-.27-.16-.51-.35-.72-.55-.22-.21-.39-.45-.51-.72-.13-.28-.19-.6-.19-.96,0-.44.1-.84.3-1.17.19-.32.45-.6.76-.81.3-.2.65-.36,1.03-.45.37-.1.75-.14,1.14-.14.88,0,1.52.11,1.95.34l.2.11v2.03l-.59-.41c-.42-.29-.98-.44-1.66-.44-.18,0-.37.02-.55.06-.17.04-.32.09-.45.17-.12.07-.21.16-.28.27-.06.09-.09.22-.09.37s.03.28.08.37c.05.11.14.21.25.3.13.11.3.22.5.33.22.12.47.24.75.38.31.15.6.31.87.48.29.17.54.37.76.59.23.22.41.48.55.75.14.29.21.62.21.98,0,.47-.1.88-.29,1.21-.19.33-.44.61-.76.82-.31.2-.66.35-1.06.43-.38.08-.78.13-1.19.13l-.03-.03ZM180.83,250.31c.05.02.11.04.17.06.16.05.34.1.52.14.19.04.37.07.55.09.18.02.32.03.44.03.36,0,.71-.04,1.03-.11.31-.07.58-.18.81-.33.22-.14.39-.33.52-.56.13-.22.19-.51.19-.85,0-.25-.05-.46-.14-.65-.1-.2-.23-.38-.4-.55-.18-.17-.39-.34-.63-.48-.25-.15-.52-.3-.81-.44s-.55-.28-.77-.4c-.24-.13-.45-.27-.62-.41-.19-.16-.34-.34-.44-.54-.11-.21-.16-.45-.16-.72,0-.3.07-.56.22-.78.13-.2.31-.37.52-.5.2-.12.43-.21.68-.26.24-.05.47-.07.71-.07.56,0,1.06.09,1.5.26v-.21c-.26-.09-.69-.17-1.4-.17-.32,0-.64.04-.95.12-.3.08-.57.19-.8.35-.22.15-.4.33-.53.57-.13.22-.19.48-.19.79,0,.25.04.47.12.64.09.19.21.35.35.5.16.16.36.31.58.44.24.14.5.29.78.43.27.14.53.27.77.4.25.13.48.28.67.43.21.16.37.35.49.55.13.22.2.48.2.77,0,.53-.2.96-.59,1.25-.36.27-.87.41-1.55.41-.19,0-.4-.02-.62-.06s-.44-.09-.65-.16c-.19-.06-.38-.13-.55-.22v.23h-.02Z"/>
        </g>
        <g>
          <path class="st14" d="M190.58,247.76v3.11h-.96v-8.23h2.26c.88,0,1.56.21,2.05.64.48.43.73,1.03.73,1.81s-.27,1.42-.81,1.92-1.26.75-2.18.75h-1.09ZM190.58,243.51v3.37h1.01c.67,0,1.17-.15,1.52-.46.35-.3.53-.73.53-1.29,0-1.09-.64-1.63-1.93-1.63h-1.13Z"/>
          <path class="st12" d="M190.95,251.24h-1.71v-8.98h2.64c.97,0,1.74.25,2.29.74.57.5.85,1.21.85,2.09s-.31,1.62-.93,2.19c-.61.56-1.42.85-2.43.85h-.71v3.11h0ZM189.99,250.49h.21v-3.11h1.46c.82,0,1.45-.21,1.92-.65.46-.43.69-.96.69-1.64s-.2-1.18-.6-1.53c-.41-.36-1.02-.55-1.8-.55h-1.89v7.48h0ZM191.59,247.26h-1.38v-4.12h1.51c2,0,2.3,1.26,2.3,2,0,.67-.22,1.19-.65,1.57-.42.36-1.01.55-1.77.55h0ZM190.95,246.51h.63c.57,0,1-.12,1.28-.36.27-.23.4-.56.4-1,0-.58-.18-1.25-1.55-1.25h-.76v2.62h0Z"/>
        </g>
        <g>
          <path class="st14" d="M203.09,250.86h-4.36v-8.23h4.18v.87h-3.21v2.74h2.97v.87h-2.97v2.88h3.4v.87h0Z"/>
          <path class="st12" d="M203.47,251.24h-5.11v-8.98h4.93v1.62h-3.21v1.99h2.97v1.62h-2.97v2.13h3.4v1.62h0ZM199.11,250.49h3.61v-.12h-3.4v-3.63h2.97v-.12h-2.97v-3.49h3.21v-.12h-3.43v7.48h0Z"/>
        </g>
        <g>
          <path class="st14" d="M212.82,250.52c-.61.32-1.37.48-2.27.48-1.17,0-2.11-.38-2.81-1.13s-1.06-1.74-1.06-2.97c0-1.32.4-2.38,1.19-3.19.79-.81,1.8-1.22,3.01-1.22.78,0,1.43.11,1.94.34v1.03c-.59-.33-1.24-.49-1.95-.49-.94,0-1.71.32-2.3.95-.59.63-.88,1.47-.88,2.53s.27,1.8.82,2.4c.55.59,1.27.89,2.16.89.83,0,1.54-.18,2.15-.55v.94h0Z"/>
          <path class="st12" d="M210.54,251.38c-1.27,0-2.31-.42-3.09-1.25-.77-.82-1.16-1.91-1.16-3.22,0-1.41.44-2.57,1.29-3.45.86-.88,1.97-1.33,3.28-1.33.83,0,1.53.12,2.09.37l.22.1v1.91l-.56-.31c-.53-.3-1.12-.45-1.77-.45-.84,0-1.51.27-2.02.83-.52.56-.78,1.31-.78,2.27,0,.91.24,1.61.72,2.14.48.52,1.1.77,1.88.77s1.41-.17,1.95-.5l.57-.35v1.83l-.2.11c-.66.35-1.48.53-2.45.53h.03ZM210.88,242.87c-1.12,0-2.02.36-2.74,1.1-.73.75-1.08,1.7-1.08,2.93,0,1.14.31,2.02.95,2.71.64.68,1.47,1.01,2.54,1.01.74,0,1.38-.11,1.9-.34v-.09c-.53.21-1.12.32-1.77.32-1,0-1.82-.34-2.44-1.01-.61-.66-.92-1.55-.92-2.65s.33-2.09.98-2.79c.66-.71,1.52-1.07,2.57-1.07.56,0,1.08.09,1.58.28v-.18c-.43-.15-.95-.22-1.56-.22h0Z"/>
        </g>
        <g>
          <path class="st14" d="M217.99,250.86h-.96v-8.23h.96v8.23Z"/>
          <path class="st12" d="M218.37,251.24h-1.71v-8.98h1.71v8.98ZM217.4,250.49h.21v-7.48h-.21v7.48Z"/>
        </g>
        <g>
          <path class="st14" d="M229.06,250.86h-1.07l-.87-2.31h-3.49l-.82,2.31h-1.07l3.16-8.23h1l3.17,8.23h0ZM226.81,247.69l-1.29-3.51c-.04-.11-.08-.3-.13-.55h-.02c-.04.23-.08.42-.13.55l-1.28,3.51h2.85Z"/>
          <path class="st12" d="M229.61,251.24h-1.87l-.87-2.31h-2.96l-.82,2.31h-1.88l3.44-8.98h1.51l3.46,8.98h0ZM228.25,250.49h.26l-2.88-7.48h-.48l-.1.25h.63l.07.31c.05.28.08.42.11.48l1.48,4.01h-3.93l1.46-4.01c.04-.11.08-.27.11-.48l.04-.27-2.75,7.18h.26l.82-2.31h4.01l.87,2.31h.02ZM224.49,247.32h1.78l-.89-2.42-.88,2.42h0Z"/>
        </g>
        <g>
          <path class="st14" d="M237.08,250.86h-4.27v-8.23h.96v7.36h3.3v.87h0Z"/>
          <path class="st12" d="M237.45,251.24h-5.02v-8.98h1.71v7.36h3.3v1.62h0ZM233.19,250.49h3.52v-.12h-3.3v-7.36h-.21v7.48h0Z"/>
        </g>
        <g>
          <path class="st14" d="M241.84,250.86h-.96v-8.23h.96v8.23Z"/>
          <path class="st12" d="M242.22,251.24h-1.71v-8.98h1.71v8.98ZM241.26,250.49h.21v-7.48h-.21v7.48Z"/>
        </g>
        <g>
          <path class="st14" d="M246.16,250.53v-1.14c.13.11.29.22.47.31.18.09.37.17.57.23.2.06.4.11.61.15.2.03.39.05.56.05.59,0,1.04-.11,1.33-.33.29-.22.44-.54.44-.95,0-.22-.05-.42-.15-.58-.1-.16-.23-.31-.4-.45s-.38-.27-.61-.39c-.24-.12-.49-.26-.76-.39-.29-.15-.55-.29-.8-.44-.25-.15-.46-.31-.65-.49-.18-.18-.33-.38-.43-.61-.11-.23-.16-.49-.16-.8,0-.38.08-.7.25-.98.16-.28.38-.51.65-.69.27-.18.57-.31.92-.4.34-.09.69-.13,1.05-.13.81,0,1.4.1,1.77.29v1.08c-.49-.34-1.11-.5-1.87-.5-.21,0-.42.02-.63.07-.21.04-.4.12-.56.22s-.3.23-.4.38c-.1.16-.16.35-.16.57s.04.39.12.55c.08.15.19.29.35.42.15.13.34.25.56.37s.47.25.76.39c.29.15.57.3.84.46s.5.34.69.53c.2.2.36.41.47.65.12.24.18.51.18.81,0,.41-.08.75-.24,1.03s-.37.51-.64.69c-.27.18-.58.3-.93.38-.35.08-.72.12-1.11.12-.13,0-.29,0-.48-.03s-.39-.05-.59-.09-.39-.09-.57-.15c-.18-.06-.32-.13-.43-.2h-.02Z"/>
          <path class="st12" d="M248.22,251.38c-.15,0-.32,0-.52-.03s-.41-.06-.62-.1c-.21-.04-.42-.1-.61-.16-.21-.07-.38-.15-.52-.24l-.16-.11v-2.17l.62.55c.11.09.24.18.39.26.16.08.34.15.52.21.18.06.37.1.56.13.18.03.35.05.5.05.51,0,.88-.09,1.1-.25.2-.15.29-.35.29-.65,0-.15-.03-.28-.09-.39-.07-.12-.18-.24-.31-.35-.15-.12-.34-.24-.55-.35-.23-.12-.49-.25-.75-.39-.29-.15-.57-.3-.83-.45-.27-.16-.51-.35-.72-.55-.22-.21-.39-.45-.51-.72-.13-.28-.19-.6-.19-.96,0-.44.1-.83.3-1.17.19-.32.45-.6.76-.81.3-.2.65-.36,1.03-.45.37-.1.75-.14,1.14-.14.88,0,1.52.11,1.95.34l.2.11v2.03l-.59-.41c-.42-.29-.98-.44-1.66-.44-.18,0-.37.02-.55.06-.17.04-.32.09-.44.17-.12.07-.21.16-.28.27-.06.1-.09.22-.09.37s.03.28.08.37c.05.11.14.21.25.3.13.11.3.22.5.33.22.12.47.24.75.38.31.15.6.31.87.48.29.17.54.37.76.59.23.22.41.48.55.75.14.29.21.62.21.98,0,.47-.1.88-.29,1.21-.19.33-.45.61-.76.82-.31.2-.66.35-1.06.43-.38.08-.78.13-1.19.13l-.04-.03ZM246.54,250.31c.05.02.11.04.17.06.16.05.34.1.52.14.19.04.37.07.55.09.18.02.32.03.44.03.36,0,.71-.04,1.03-.11.31-.07.58-.18.81-.33.22-.14.39-.33.52-.56.13-.22.19-.51.19-.85,0-.25-.05-.46-.14-.65-.1-.2-.23-.38-.4-.55-.18-.17-.39-.34-.63-.48-.25-.15-.52-.3-.81-.44s-.55-.28-.77-.4c-.24-.13-.45-.27-.62-.41-.19-.16-.34-.34-.44-.54-.11-.21-.16-.45-.16-.72,0-.3.07-.56.22-.78.13-.2.31-.37.52-.5.2-.12.43-.21.68-.26.23-.05.47-.07.71-.07.56,0,1.06.09,1.5.26v-.21c-.26-.09-.69-.17-1.4-.17-.32,0-.64.04-.95.12-.3.08-.57.19-.8.35-.22.15-.4.33-.53.57-.13.22-.19.48-.19.79,0,.25.04.47.12.64.09.19.2.35.35.5.16.16.36.31.58.44.24.14.5.29.78.43.27.14.53.27.77.4.25.13.48.28.67.43.21.16.37.35.49.55.13.22.2.48.2.77,0,.53-.2.96-.59,1.25-.36.27-.87.41-1.55.41-.19,0-.4-.02-.62-.06s-.44-.09-.65-.16c-.19-.06-.38-.13-.55-.22v.23h-.02Z"/>
        </g>
        <g>
          <path class="st14" d="M260.19,243.51h-2.38v7.36h-.96v-7.36h-2.37v-.87h5.71v.87Z"/>
          <path class="st12" d="M258.19,251.24h-1.71v-7.36h-2.37v-1.62h6.46v1.62h-2.38v7.36ZM257.23,250.49h.21v-7.36h2.38v-.12h-4.96v.12h2.37v7.36Z"/>
        </g>
      </g>
      <g id="Star">
        <g class="st19">
          <g>
            <g>
              <path class="st2" d="M270.67,113.2c0,3.71-3,6.71-6.71,6.71s-6.71-3-6.71-6.71,3-6.71,6.71-6.71,6.71,3,6.71,6.71Z"/>
              <g>
                <path class="st3" d="M264.44,113.68c-6.08,6.08-11.23,10.8-11.49,10.53-.26-.26,4.45-5.41,10.53-11.49,6.08-6.08,11.22-10.8,11.49-10.53.26.26-4.45,5.41-10.53,11.49Z"/>
                <path class="st8" d="M264.09,113.34c-4.71,4.71-8.59,8.47-8.66,8.4s3.69-3.95,8.4-8.66,8.59-8.47,8.66-8.39c.07.07-3.68,3.95-8.39,8.66h0Z"/>
              </g>
              <g>
                <path class="st7" d="M263.59,113.58c-5.26-5.26-9.36-9.69-9.16-9.9.21-.21,4.64,3.89,9.9,9.16,5.26,5.26,9.36,9.69,9.15,9.9-.2.21-4.64-3.89-9.9-9.16h.01Z"/>
                <path class="st1" d="M263.86,113.31c-4.08-4.08-7.33-7.43-7.28-7.48.06-.06,3.41,3.2,7.49,7.28,4.07,4.08,7.33,7.43,7.28,7.48-.06.06-3.41-3.2-7.48-7.28h0Z"/>
              </g>
            </g>
            <g>
              <path class="st0" d="M278.45,113.2c0,8.05-6.53,14.58-14.58,14.58s-14.58-6.53-14.58-14.58,6.52-14.58,14.58-14.58,14.58,6.53,14.58,14.58Z"/>
              <path class="st4" d="M263.87,113.92c-10.74,0-19.46-.32-19.46-.72s8.71-.71,19.46-.71,19.46.32,19.46.71-8.71.72-19.46.72Z"/>
              <path class="st6" d="M263.15,113.2c0-10.74.32-19.46.72-19.46s.72,8.71.72,19.46-.32,19.46-.72,19.46-.72-8.71-.72-19.46Z"/>
            </g>
          </g>
        </g>
      </g>
      <g class="st16">
        <path class="st15" d="M170.42,150.34v-79.78h-32.48v100.82c0,10.12-8.21,18.33-18.33,18.33h0c-10.12,0-17.75-9.59-18.33-18.33v-100.82h-33.03c-.17,27.17-.34,55.14-.51,82.32-.08,13.4-.09,27.7,7.17,39.93,6.43,10.84,19.3,15.6,30.81,17.89,13.27,2.65,27.31,1.05,39.72-4.45,7.79-3.46,14.61-8.99,19.12-16.46,7.15-11.82,5.88-26.17,5.88-39.44h-.02ZM93.2,199.18c-14.31-5.13-19.96-20.46-20.09-33.31-.02-2.97,0-61.52,0-90.25h22.88c-.01,16.87,0,50.13,0,50.13-.22,12.34-.25,25.98.11,38.39-.27,10.24,2.53,23.26,12.64,28.46,3.06,1.81,7.01,2.78,12.13,2.12.29-.04.53-.06.8-.1-7.71,6-18.95,7.97-28.47,4.56ZM165.45,171.38c-1.1,17.02-14.58,28.76-31.37,34.17-7.37,1.51-16.46,2.3-23.74-.45-.12-.05.12-.22.6-.51,3.22-.41,6.42-1.15,9.54-2.23,3.88-1.68,7.48-4.01,10.55-6.8,8.91-7.77,12.72-21.03,11.91-30.82v-89.12h22.49c0,29.66.03,86.89.03,95.76h-.01Z"/>
      </g>
    </g>
  </g>
</svg>