<svg xmlns="http://www.w3.org/2000/svg" viewBox="0 0 256 256">
  <rect width="256" height="256" rx="46" fill="#001132"/>
  <svg x="26" y="52" width="204" height="152" viewBox="0 0 238.54 180.83" overflow="visible">
  <!-- Generator: Adobe Illustrator 30.5.1, SVG Export Plug-In . SVG Version: 2.1.4 Build 3)  -->
  <defs>
    <style>
      .st0 {
        filter: url(#drop-shadow-2);
      }

      .st1 {
        fill: url(#linear-gradient1);
      }

      .st2 {
        filter: url(#drop-shadow-1);
      }

      .st3 {
        fill: #fbb034;
      }

      .st4 {
        fill: #001132;
      }

      .st5 {
        fill: url(#linear-gradient);
      }
    </style>
    <linearGradient id="linear-gradient" x1="134.85" y1="-8.22" x2="52.72" y2="134.04" gradientUnits="userSpaceOnUse">
      <stop offset=".41" stop-color="#00356b"/>
      <stop offset="1" stop-color="#001132"/>
    </linearGradient>
    <linearGradient id="linear-gradient1" x1="199.02" y1="3.47" x2="117.56" y2="144.57" gradientUnits="userSpaceOnUse">
      <stop offset=".41" stop-color="#00356b"/>
      <stop offset="1" stop-color="#001132"/>
    </linearGradient>
    <filter id="drop-shadow-1" x="131.77" y="10.45" width="51" height="65" filterUnits="userSpaceOnUse">
      <feOffset dx="-2.25" dy="4.5"/>
      <feGaussianBlur result="blur" stdDeviation="2.25"/>
      <feFlood flood-color="#000" flood-opacity=".82"/>
      <feComposite in2="blur" operator="in"/>
      <feComposite in="SourceGraphic"/>
    </filter>
    <filter id="drop-shadow-2" x="129.77" y="70.45" width="52" height="64" filterUnits="userSpaceOnUse">
      <feOffset dx="-2.25" dy="4.5"/>
      <feGaussianBlur result="blur1" stdDeviation="2.25"/>
      <feFlood flood-color="#000" flood-opacity=".82"/>
      <feComposite in2="blur1" operator="in"/>
      <feComposite in="SourceGraphic"/>
    </filter>
  </defs>
  <path class="st5" d="M95.72.78v100.04c0,10.12-8.21,18.33-18.33,18.33h0c-10.12,0-18.33-8.21-18.33-18.33V.78h-29.5v98.74c0,21.35,20.11,38.67,41.47,38.67h79.41V.78h-54.71Z"/>
  <path id="Gradient_Fill_1" class="st1" d="M127.46.78v100.49c0,13.02-5.95,25.29-16.08,33.13l-4.89,3.79h87.87V.78h-66.9Z"/>
  <g class="st2">
    <path class="st3" d="M176.25,12.8h-20.2s-8.58-.07-13.34,7.83c-4.77,7.89,1.4,14.48,3.43,15.91s4.96,3.46,18.23,7.5c0,0,7.56,2.22,5.78,7.3s-6.99,4.57-6.99,4.57h-20.33v7.04h20.78s10.99.65,13.53-9.91c2.54-10.57-7.5-14.35-7.5-14.35l-11.75-4.5s-9.59-2.93-9.28-7.43,3.49-6.85,7.43-6.85,20.2.07,20.2.07v-7.17Z"/>
  </g>
  <g id="Stroke">
    <polygon class="st3" points="195.11 138.93 106.49 138.93 110.07 137.43 193.61 137.43 193.61 1.53 127.46 1.53 127.46 .03 195.11 .03 195.11 138.93"/>
  </g>
  <g id="Oribital_Ring">
    <path class="st3" d="M26.65,102.79s-45.78,25.79-17.35,39.55c28.43,13.77,81.25,1.45,81.25,1.45,0,0,64.31-12.39,114.04-46.59,49.73-34.2,30.15-48.78,30.15-48.78,0,0-10.74-10.28-39.1-9.13,0,0,33.03,1.08,37.64,11.83s-5.39,21.46-5.39,21.46c0,0-16.96,27.24-83.71,52.93,0,0-42.94,17.16-71.01,19.5-28.07,2.34-69.7,3.93-70.49-16.26,1.02-12.89,23.96-25.97,23.96-25.97Z"/>
  </g>
  <g class="st0">
    <path class="st3" d="M176.44,73.99s-13.21-2.22-20.97.91-14.99,9.91-16.14,18.91c-1.14,9,2.54,19.57,11.82,25.04s22.24,3.39,25.29,3v-25.96h-17.79v5.74h11.69v14.48s-16.01,2.09-22.36-10.43c-6.35-12.52,4.7-21.52,4.7-21.52,0,0,5.08-6.52,23.76-3.78v-6.39Z"/>
  </g>
  <g>
    <g>
      <path class="st4" d="M17.84,180.31h-1.15l-1.38-2.31c-.13-.21-.25-.4-.37-.55-.12-.15-.24-.27-.36-.37-.12-.1-.26-.17-.4-.21-.14-.04-.31-.07-.48-.07h-.79v3.5h-.96v-8.23h2.46c.36,0,.69.04,1,.13.3.09.57.23.79.41.22.18.4.41.53.69s.19.59.19.96c0,.29-.04.55-.13.79-.09.24-.21.45-.37.64-.16.19-.35.35-.57.48-.22.13-.48.23-.75.31v.02c.14.06.26.13.36.21.1.08.2.17.29.28.09.11.18.23.27.36.09.14.19.29.3.47l1.54,2.47ZM12.91,172.96v2.98h1.31c.24,0,.46-.04.67-.11.2-.07.38-.18.53-.31s.27-.3.35-.5c.08-.2.13-.42.13-.66,0-.44-.14-.78-.43-1.03-.28-.25-.7-.37-1.24-.37h-1.32Z"/>
      <path class="st4" d="M18.52,180.69h-2.04l-1.49-2.49c-.12-.2-.23-.37-.34-.51-.1-.13-.2-.23-.3-.3-.09-.07-.18-.12-.28-.15-.11-.03-.23-.05-.37-.05h-.42v3.5h-1.71v-8.98h2.83c.39,0,.76.05,1.1.15.35.1.66.27.92.48.27.22.48.49.63.82.15.32.22.7.22,1.12,0,.33-.05.64-.15.92-.1.28-.25.53-.43.75-.19.22-.41.41-.67.56-.05.03-.11.06-.16.09.05.05.1.1.15.16.1.12.2.25.3.4.09.14.19.3.31.48l1.9,3.04ZM16.91,179.94h.26l-1.19-1.9c-.11-.18-.21-.33-.3-.47-.08-.12-.16-.23-.24-.33-.07-.09-.15-.16-.23-.23-.08-.06-.17-.11-.28-.16l-.06-.03c.13.11.26.24.38.4.13.16.26.36.4.59l1.27,2.12ZM12.32,179.94h.21v-3.5h1.17c.22,0,.42.03.59.08.14.04.28.11.41.19v-.44c-.16.03-.32.05-.49.05h-1.68v-3.73h1.69c.63,0,1.13.16,1.48.46.37.32.56.76.56,1.31,0,.29-.05.57-.16.81-.11.25-.25.46-.44.63-.06.06-.13.11-.2.16.06-.03.12-.06.17-.09.19-.11.35-.24.48-.4.13-.15.23-.33.3-.52.07-.2.11-.42.11-.66,0-.31-.05-.58-.15-.8-.1-.22-.24-.4-.42-.55-.18-.15-.41-.27-.66-.34-.27-.08-.57-.12-.89-.12h-2.08v7.48ZM13.29,175.57h.93c.2,0,.38-.03.54-.09.16-.06.29-.14.4-.24.11-.1.19-.22.26-.37.06-.15.1-.32.1-.52,0-.33-.1-.57-.3-.75-.21-.18-.55-.28-.99-.28h-.94v2.23Z"/>
    </g>
    <g>
      <path class="st4" d="M25.87,180.31h-4.36v-8.23h4.18v.87h-3.21v2.74h2.97v.87h-2.97v2.88h3.4v.87Z"/>
      <path class="st4" d="M26.25,180.69h-5.11v-8.98h4.93v1.62h-3.21v1.99h2.97v1.62h-2.97v2.13h3.4v1.62ZM21.89,179.94h3.61v-.12h-3.4v-3.63h2.97v-.12h-2.97v-3.49h3.21v-.12h-3.43v7.48Z"/>
    </g>
    <g>
      <path class="st4" d="M34.88,172.96h-2.38v7.36h-.96v-7.36h-2.37v-.87h5.71v.87Z"/>
      <path class="st4" d="M32.88,180.69h-1.71v-7.36h-2.37v-1.62h6.46v1.62h-2.38v7.36ZM31.92,179.94h.21v-7.36h2.38v-.12h-4.96v.12h2.37v7.36Z"/>
    </g>
    <g>
      <path class="st4" d="M44.2,180.31h-1.07l-.87-2.31h-3.49l-.82,2.31h-1.07l3.16-8.23h1l3.17,8.23ZM41.94,177.14l-1.29-3.51c-.04-.11-.08-.3-.13-.55h-.02c-.04.23-.08.42-.13.55l-1.28,3.51h2.85Z"/>
      <path class="st4" d="M44.74,180.69h-1.87l-.87-2.31h-2.96l-.82,2.31h-1.88l3.44-8.98h1.51l3.46,8.98ZM43.39,179.94h.26l-2.88-7.48h-.48l-.1.25h.63l.08.31c.05.28.09.42.11.48l1.48,4.01h-3.93l1.46-4.01c.04-.11.08-.27.11-.48l.04-.27-2.75,7.18h.26l.82-2.31h4.01l.87,2.31ZM39.63,176.77h1.78l-.89-2.42-.88,2.42Z"/>
    </g>
    <g>
      <path class="st4" d="M48.91,180.31h-.96v-8.23h.96v8.23Z"/>
      <path class="st4" d="M49.28,180.69h-1.71v-8.98h1.71v8.98ZM48.32,179.94h.21v-7.48h-.21v7.48Z"/>
    </g>
    <g>
      <path class="st4" d="M57.88,180.31h-4.27v-8.23h.96v7.36h3.3v.87Z"/>
      <path class="st4" d="M58.25,180.69h-5.02v-8.98h1.71v7.36h3.3v1.62ZM53.98,179.94h3.52v-.12h-3.3v-7.36h-.21v7.48Z"/>
    </g>
    <g>
      <path class="st4" d="M67.05,179.98v-1.14c.13.11.29.22.47.31.18.09.37.17.57.23.2.06.4.11.61.15.2.03.39.05.56.05.59,0,1.04-.11,1.33-.33.29-.22.44-.54.44-.95,0-.22-.05-.42-.15-.58-.1-.16-.23-.31-.4-.45s-.38-.27-.61-.39c-.24-.12-.49-.26-.76-.39-.29-.15-.55-.29-.8-.44-.25-.15-.46-.31-.65-.49-.18-.18-.33-.38-.43-.61-.11-.23-.16-.49-.16-.8,0-.38.08-.7.25-.98.16-.28.38-.51.65-.69.27-.18.57-.31.92-.4.34-.09.69-.13,1.05-.13.81,0,1.4.1,1.77.29v1.08c-.49-.34-1.11-.5-1.87-.5-.21,0-.42.02-.63.07-.21.04-.4.12-.56.22-.16.1-.3.23-.4.38-.1.16-.15.35-.15.57,0,.21.04.39.12.55.08.15.19.29.35.42.15.13.34.25.56.37.22.12.47.25.76.39.29.15.57.3.84.46s.5.34.69.53c.2.2.36.41.47.65.12.24.18.51.18.81,0,.41-.08.75-.24,1.03-.16.28-.37.51-.64.69-.27.18-.58.3-.93.38-.35.08-.72.12-1.11.12-.13,0-.29-.01-.48-.03-.19-.02-.39-.05-.59-.09-.2-.04-.39-.09-.57-.15-.18-.06-.32-.13-.43-.2Z"/>
      <path class="st4" d="M69.11,180.83c-.15,0-.32-.01-.52-.03-.2-.02-.41-.06-.62-.1-.21-.04-.42-.1-.61-.16-.21-.07-.38-.15-.52-.24l-.16-.11v-2.17l.62.55c.11.09.24.18.39.26.16.08.34.15.52.21.18.06.37.1.56.13.18.03.35.05.5.05.51,0,.88-.09,1.1-.25.2-.15.29-.35.29-.65,0-.15-.03-.28-.09-.39-.07-.12-.18-.24-.31-.35-.15-.12-.34-.24-.55-.35-.23-.12-.49-.25-.75-.39-.29-.15-.57-.3-.83-.45-.27-.16-.52-.35-.72-.55-.22-.21-.39-.45-.51-.72-.13-.28-.19-.6-.19-.96,0-.44.1-.83.3-1.17.19-.32.45-.6.76-.81.3-.2.65-.36,1.03-.45.37-.1.75-.14,1.14-.14.88,0,1.52.11,1.95.34l.2.11v2.03l-.59-.41c-.42-.29-.98-.44-1.66-.44-.18,0-.37.02-.55.06-.17.04-.32.09-.44.17-.12.07-.21.16-.28.27-.06.1-.09.22-.09.37s.03.28.08.37c.05.11.14.21.25.3.13.11.3.22.5.33.22.12.47.24.75.38.31.15.6.31.87.48.29.17.54.37.76.59.23.22.41.48.55.75.14.29.21.62.21.98,0,.47-.1.88-.29,1.21-.19.33-.44.61-.76.82-.31.2-.66.35-1.06.43-.38.08-.78.13-1.19.13ZM67.43,179.76c.05.02.11.04.17.06.16.05.34.1.52.14.19.04.37.07.55.09.18.02.32.03.44.03.36,0,.71-.04,1.03-.11.31-.07.58-.18.81-.33.22-.14.39-.33.52-.56.13-.22.19-.51.19-.85,0-.25-.05-.46-.14-.65-.1-.2-.23-.38-.4-.55-.18-.17-.39-.34-.63-.48-.25-.15-.52-.3-.81-.44-.29-.14-.55-.28-.77-.4-.24-.13-.45-.27-.62-.41-.19-.16-.34-.34-.44-.54-.11-.21-.16-.45-.16-.72,0-.3.07-.56.22-.78.13-.2.31-.37.52-.5.2-.12.43-.21.68-.26.23-.05.47-.07.71-.07.56,0,1.06.09,1.5.26v-.21c-.26-.09-.69-.17-1.4-.17-.32,0-.64.04-.95.12-.3.08-.57.19-.8.35-.22.15-.4.33-.53.57-.13.22-.19.48-.19.79,0,.25.04.47.12.64.09.19.2.35.36.5.16.16.36.31.58.44.24.14.5.29.78.43.27.14.53.27.77.4.25.13.48.28.67.43.21.16.37.35.49.55.13.22.2.48.2.77,0,.53-.2.96-.59,1.25-.36.27-.87.41-1.55.41-.19,0-.4-.02-.63-.06-.22-.04-.44-.09-.65-.16-.19-.06-.38-.13-.55-.22v.23Z"/>
    </g>
    <g>
      <path class="st4" d="M77.18,180.31h-.96v-8.23h.96v8.23Z"/>
      <path class="st4" d="M77.55,180.69h-1.71v-8.98h1.71v8.98ZM76.59,179.94h.21v-7.48h-.21v7.48Z"/>
    </g>
    <g>
      <path class="st4" d="M88.03,179.75c-.83.47-1.74.7-2.75.7-1.17,0-2.12-.38-2.85-1.14s-1.09-1.76-1.09-3.01.4-2.32,1.21-3.14c.81-.82,1.83-1.22,3.06-1.22.9,0,1.65.15,2.25.44v1.07c-.67-.42-1.45-.63-2.36-.63s-1.68.32-2.27.95c-.59.64-.88,1.46-.88,2.47s.27,1.86.82,2.45c.55.59,1.29.89,2.23.89.64,0,1.2-.13,1.67-.38v-2.31h-1.8v-.87h2.77v3.73Z"/>
      <path class="st4" d="M85.28,180.83c-1.28,0-2.32-.42-3.12-1.25-.79-.83-1.19-1.92-1.19-3.27s.44-2.51,1.32-3.4c.87-.89,1.99-1.34,3.33-1.34.95,0,1.76.16,2.42.47l.21.1v1.98l-.58-.36c-.6-.38-1.33-.57-2.16-.57s-1.47.27-1.99.83c-.53.57-.78,1.29-.78,2.21s.24,1.68.72,2.2c.48.52,1.11.77,1.95.77.49,0,.92-.08,1.29-.24v-1.7h-1.8v-1.62h3.52v4.32l-.19.11c-.88.5-1.87.75-2.94.75ZM85.61,172.32c-1.14,0-2.06.36-2.79,1.11-.74.75-1.1,1.69-1.1,2.87s.32,2.06.98,2.75c.66.69,1.5,1.02,2.58,1.02.86,0,1.66-.18,2.38-.55v-3.13h-2.02v.12h1.8v2.9l-.2.11c-.52.29-1.15.43-1.85.43-1.04,0-1.88-.34-2.5-1.01-.61-.66-.92-1.57-.92-2.71s.33-2.02.98-2.72c.66-.71,1.52-1.07,2.54-1.07.73,0,1.4.13,1.99.39v-.2c-.52-.2-1.15-.31-1.88-.31Z"/>
    </g>
    <g>
      <path class="st4" d="M99.11,180.31h-1.18l-4.23-6.56c-.11-.16-.2-.34-.26-.52h-.03c.03.18.05.55.05,1.13v5.94h-.96v-8.23h1.25l4.12,6.45c.17.27.28.45.33.55h.02c-.04-.24-.06-.64-.06-1.21v-5.79h.96v8.23Z"/>
      <path class="st4" d="M99.49,180.69h-1.76l-3.91-6.05v6.05h-1.71v-8.98h1.83l3.84,6.01v-6.01h1.71v8.98ZM98.13,179.94h.6v-7.48h-.21v5.42c0,.55.02.93.05,1.15l.07.43h-.67l-.13-.21c-.03-.06-.11-.2-.31-.52l-4.01-6.28h-.67v7.48h.21v-5.57c0-.73-.03-.98-.04-1.07l-.08-.44h.74l.09.24c.06.15.14.3.23.45l4.12,6.39Z"/>
    </g>
    <g>
      <path class="st4" d="M110.17,180.31h-1.07l-.87-2.31h-3.49l-.82,2.31h-1.07l3.16-8.23h1l3.17,8.23ZM107.92,177.14l-1.29-3.51c-.04-.11-.08-.3-.13-.55h-.02c-.04.23-.08.42-.13.55l-1.28,3.51h2.85Z"/>
      <path class="st4" d="M110.72,180.69h-1.87l-.87-2.31h-2.96l-.82,2.31h-1.88l3.44-8.98h1.51l3.46,8.98ZM109.37,179.94h.26l-2.88-7.48h-.48l-.1.25h.63l.08.31c.05.28.09.42.11.48l1.48,4.01h-3.93l1.46-4.01c.04-.11.08-.27.11-.48l.04-.27-2.75,7.18h.26l.82-2.31h4.01l.87,2.31ZM105.6,176.77h1.78l-.89-2.42-.88,2.42Z"/>
    </g>
    <g>
      <path class="st4" d="M119.92,179.75c-.83.47-1.74.7-2.75.7-1.17,0-2.12-.38-2.85-1.14-.72-.76-1.09-1.76-1.09-3.01s.4-2.32,1.21-3.14c.81-.82,1.83-1.22,3.06-1.22.9,0,1.65.15,2.25.44v1.07c-.67-.42-1.45-.63-2.36-.63s-1.68.32-2.27.95c-.59.64-.88,1.46-.88,2.47s.27,1.86.82,2.45c.55.59,1.29.89,2.23.89.64,0,1.2-.13,1.67-.38v-2.31h-1.8v-.87h2.77v3.73Z"/>
      <path class="st4" d="M117.17,180.83c-1.27,0-2.32-.42-3.12-1.25-.79-.83-1.19-1.92-1.19-3.27s.44-2.51,1.32-3.4c.87-.89,1.99-1.34,3.33-1.34.95,0,1.76.16,2.42.47l.21.1v1.98l-.58-.36c-.6-.38-1.33-.57-2.16-.57s-1.47.27-1.99.83c-.53.57-.78,1.29-.78,2.21s.24,1.68.72,2.2c.48.52,1.11.77,1.95.77.49,0,.92-.08,1.29-.24v-1.7h-1.8v-1.62h3.52v4.32l-.19.11c-.88.5-1.87.75-2.94.75ZM117.5,172.32c-1.14,0-2.06.36-2.79,1.11-.74.75-1.1,1.69-1.1,2.87s.32,2.06.98,2.75c.66.69,1.5,1.02,2.58,1.02.86,0,1.66-.18,2.38-.55v-3.13h-2.02v.12h1.8v2.9l-.2.11c-.52.29-1.15.43-1.85.43-1.04,0-1.88-.34-2.5-1.01-.61-.66-.92-1.57-.92-2.71s.33-2.02.98-2.72c.66-.71,1.52-1.07,2.54-1.07.73,0,1.4.13,1.99.39v-.2c-.52-.2-1.15-.31-1.88-.31Z"/>
    </g>
    <g>
      <path class="st4" d="M128.73,180.31h-4.36v-8.23h4.18v.87h-3.21v2.74h2.97v.87h-2.97v2.88h3.4v.87Z"/>
      <path class="st4" d="M129.1,180.69h-5.11v-8.98h4.93v1.62h-3.21v1.99h2.97v1.62h-2.97v2.13h3.4v1.62ZM124.74,179.94h3.61v-.12h-3.4v-3.63h2.97v-.12h-2.97v-3.49h3.21v-.12h-3.43v7.48Z"/>
    </g>
    <g>
      <path class="st4" d="M138.22,179.98v-1.14c.13.11.29.22.47.31s.37.17.57.23c.2.06.4.11.61.15s.39.05.56.05c.59,0,1.04-.11,1.33-.33.29-.22.44-.54.44-.95,0-.22-.05-.42-.15-.58-.1-.16-.23-.31-.4-.45s-.38-.27-.61-.39c-.24-.12-.49-.26-.76-.39-.29-.15-.55-.29-.8-.44-.25-.15-.46-.31-.65-.49-.18-.18-.33-.38-.43-.61s-.16-.49-.16-.8c0-.38.08-.7.25-.98s.38-.51.65-.69c.27-.18.57-.31.92-.4.34-.09.69-.13,1.05-.13.81,0,1.4.1,1.77.29v1.08c-.49-.34-1.11-.5-1.87-.5-.21,0-.42.02-.63.07-.21.04-.4.12-.56.22-.16.1-.3.23-.4.38-.1.16-.15.35-.15.57,0,.21.04.39.12.55.08.15.19.29.35.42s.34.25.56.37c.22.12.47.25.76.39.29.15.57.3.84.46s.5.34.69.53c.2.2.36.41.47.65.12.24.18.51.18.81,0,.41-.08.75-.24,1.03-.16.28-.37.51-.64.69-.27.18-.58.3-.93.38s-.72.12-1.11.12c-.13,0-.29-.01-.48-.03-.19-.02-.39-.05-.59-.09-.2-.04-.39-.09-.57-.15-.18-.06-.32-.13-.43-.2Z"/>
      <path class="st4" d="M140.28,180.83c-.15,0-.32-.01-.52-.03-.2-.02-.41-.06-.62-.1-.21-.04-.42-.1-.61-.16-.21-.07-.38-.15-.52-.24l-.16-.11v-2.17l.62.55c.1.09.24.18.39.26.16.08.34.15.52.21.18.06.37.1.56.13.18.03.35.05.5.05.51,0,.88-.09,1.1-.25.2-.15.29-.35.29-.65,0-.15-.03-.28-.09-.39-.07-.12-.18-.24-.31-.35-.15-.12-.34-.24-.55-.35-.23-.12-.49-.25-.75-.39-.29-.15-.57-.3-.83-.45-.27-.16-.51-.35-.72-.55-.22-.21-.39-.45-.51-.72-.13-.28-.19-.6-.19-.96,0-.44.1-.84.3-1.17.19-.32.45-.6.76-.81.3-.2.65-.36,1.03-.45.37-.1.75-.14,1.14-.14.88,0,1.52.11,1.95.34l.2.11v2.03l-.59-.41c-.42-.29-.98-.44-1.66-.44-.18,0-.37.02-.55.06-.17.04-.32.09-.45.17-.12.07-.21.16-.28.27-.06.09-.09.22-.09.37s.03.28.08.37c.05.11.14.21.25.3.13.11.3.22.5.33.22.12.47.24.75.38.31.15.6.31.87.48.29.17.54.37.76.59.23.22.41.48.55.75.14.29.21.62.21.98,0,.47-.1.88-.29,1.21-.19.33-.44.61-.76.82-.31.2-.66.35-1.06.43-.38.08-.78.13-1.19.13ZM138.6,179.76c.05.02.11.04.17.06.16.05.34.1.52.14.19.04.37.07.55.09.18.02.32.03.44.03.36,0,.71-.04,1.03-.11.31-.07.58-.18.81-.33.22-.14.39-.33.52-.56.13-.22.19-.51.19-.85,0-.25-.05-.46-.14-.65-.1-.2-.23-.38-.4-.55-.18-.17-.39-.34-.63-.48-.25-.15-.52-.3-.81-.44-.29-.14-.55-.28-.77-.4-.24-.13-.45-.27-.62-.41-.19-.16-.34-.34-.44-.54-.11-.21-.16-.45-.16-.72,0-.3.07-.56.22-.78.13-.2.31-.37.52-.5.2-.12.43-.21.68-.26.24-.05.47-.07.71-.07.56,0,1.06.09,1.5.26v-.21c-.26-.09-.69-.17-1.4-.17-.32,0-.64.04-.95.12-.3.08-.57.19-.8.35-.22.15-.4.33-.53.57-.13.22-.19.48-.19.79,0,.25.04.47.12.64.09.19.21.35.35.5.16.16.36.31.58.44.24.14.5.29.78.43.27.14.53.27.77.4.25.13.48.28.67.43.21.16.37.35.49.55.13.22.2.48.2.77,0,.53-.2.96-.59,1.25-.36.27-.87.41-1.55.41-.19,0-.4-.02-.62-.06-.22-.04-.44-.09-.65-.16-.19-.06-.38-.13-.55-.22v.23Z"/>
    </g>
    <g>
      <path class="st4" d="M148.35,177.2v3.11h-.96v-8.23h2.26c.88,0,1.56.21,2.05.64.48.43.73,1.03.73,1.81s-.27,1.42-.81,1.92c-.54.5-1.26.75-2.18.75h-1.08ZM148.35,172.96v3.37h1.01c.67,0,1.17-.15,1.52-.46.35-.3.53-.73.53-1.29,0-1.09-.64-1.63-1.93-1.63h-1.13Z"/>
      <path class="st4" d="M148.72,180.69h-1.71v-8.98h2.64c.97,0,1.74.25,2.29.74.57.5.85,1.21.85,2.09s-.31,1.62-.93,2.19c-.61.56-1.42.85-2.43.85h-.71v3.11ZM147.76,179.94h.21v-3.11h1.46c.82,0,1.45-.21,1.92-.65.46-.43.69-.96.69-1.64s-.2-1.18-.6-1.53c-.41-.36-1.02-.55-1.8-.55h-1.89v7.48ZM149.36,176.71h-1.38v-4.12h1.51c2,0,2.3,1.26,2.3,2,0,.67-.22,1.19-.65,1.57-.42.36-1.01.55-1.77.55ZM148.72,175.96h.63c.57,0,1-.12,1.28-.36.27-.23.4-.56.4-1,0-.58-.18-1.25-1.55-1.25h-.76v2.62Z"/>
    </g>
    <g>
      <path class="st4" d="M160.87,180.31h-4.36v-8.23h4.18v.87h-3.21v2.74h2.97v.87h-2.97v2.88h3.4v.87Z"/>
      <path class="st4" d="M161.24,180.69h-5.11v-8.98h4.93v1.62h-3.21v1.99h2.97v1.62h-2.97v2.13h3.4v1.62ZM156.88,179.94h3.61v-.12h-3.4v-3.63h2.97v-.12h-2.97v-3.49h3.21v-.12h-3.43v7.48Z"/>
    </g>
    <g>
      <path class="st4" d="M170.59,179.97c-.61.32-1.37.48-2.27.48-1.17,0-2.11-.38-2.81-1.13-.7-.75-1.06-1.74-1.06-2.97,0-1.32.4-2.38,1.19-3.19.79-.81,1.8-1.22,3.01-1.22.78,0,1.43.11,1.94.34v1.03c-.59-.33-1.24-.49-1.95-.49-.94,0-1.71.32-2.3.95-.59.63-.88,1.47-.88,2.53s.27,1.8.82,2.4c.55.59,1.27.89,2.16.89.83,0,1.54-.18,2.15-.55v.94Z"/>
      <path class="st4" d="M168.31,180.83c-1.27,0-2.31-.42-3.09-1.25-.77-.82-1.16-1.91-1.16-3.22,0-1.41.44-2.57,1.29-3.45.86-.88,1.97-1.33,3.28-1.33.83,0,1.53.12,2.09.37l.22.1v1.91l-.56-.31c-.53-.3-1.12-.45-1.77-.45-.84,0-1.51.27-2.02.83-.52.56-.78,1.31-.78,2.27,0,.91.24,1.61.72,2.14.48.52,1.1.77,1.88.77s1.41-.17,1.95-.5l.57-.35v1.83l-.2.11c-.66.35-1.48.53-2.45.53ZM168.65,172.32c-1.12,0-2.02.36-2.74,1.1-.73.75-1.08,1.7-1.08,2.93,0,1.14.31,2.02.95,2.71.64.68,1.47,1.01,2.54,1.01.74,0,1.38-.11,1.9-.34v-.09c-.53.21-1.12.32-1.77.32-1,0-1.82-.34-2.44-1.01-.61-.66-.92-1.55-.92-2.65,0-1.15.33-2.09.98-2.79.66-.71,1.52-1.07,2.57-1.07.56,0,1.08.09,1.58.28v-.18c-.43-.15-.95-.22-1.56-.22Z"/>
    </g>
    <g>
      <path class="st4" d="M175.76,180.31h-.96v-8.23h.96v8.23Z"/>
      <path class="st4" d="M176.14,180.69h-1.71v-8.98h1.71v8.98ZM175.17,179.94h.21v-7.48h-.21v7.48Z"/>
    </g>
    <g>
      <path class="st4" d="M186.83,180.31h-1.07l-.87-2.31h-3.49l-.82,2.31h-1.07l3.16-8.23h1l3.17,8.23ZM184.58,177.14l-1.29-3.51c-.04-.11-.08-.3-.13-.55h-.02c-.04.23-.08.42-.13.55l-1.28,3.51h2.85Z"/>
      <path class="st4" d="M187.38,180.69h-1.87l-.87-2.31h-2.96l-.82,2.31h-1.88l3.44-8.98h1.51l3.46,8.98ZM186.02,179.94h.26l-2.88-7.48h-.48l-.1.25h.63l.07.31c.05.28.08.42.11.48l1.48,4.01h-3.93l1.46-4.01c.04-.11.08-.27.11-.48l.04-.27-2.75,7.18h.26l.82-2.31h4.01l.87,2.31ZM182.26,176.77h1.78l-.89-2.42-.88,2.42Z"/>
    </g>
    <g>
      <path class="st4" d="M194.85,180.31h-4.27v-8.23h.96v7.36h3.3v.87Z"/>
      <path class="st4" d="M195.22,180.69h-5.02v-8.98h1.71v7.36h3.3v1.62ZM190.96,179.94h3.52v-.12h-3.3v-7.36h-.21v7.48Z"/>
    </g>
    <g>
      <path class="st4" d="M199.61,180.31h-.96v-8.23h.96v8.23Z"/>
      <path class="st4" d="M199.99,180.69h-1.71v-8.98h1.71v8.98ZM199.03,179.94h.21v-7.48h-.21v7.48Z"/>
    </g>
    <g>
      <path class="st4" d="M203.93,179.98v-1.14c.13.11.29.22.47.31.18.09.37.17.57.23.2.06.4.11.61.15.2.03.39.05.56.05.59,0,1.04-.11,1.33-.33.29-.22.44-.54.44-.95,0-.22-.05-.42-.15-.58-.1-.16-.23-.31-.4-.45s-.38-.27-.61-.39c-.24-.12-.49-.26-.76-.39-.29-.15-.55-.29-.8-.44-.25-.15-.46-.31-.65-.49-.18-.18-.33-.38-.43-.61-.11-.23-.16-.49-.16-.8,0-.38.08-.7.25-.98.16-.28.38-.51.65-.69.27-.18.57-.31.92-.4.34-.09.69-.13,1.05-.13.81,0,1.4.1,1.77.29v1.08c-.49-.34-1.11-.5-1.87-.5-.21,0-.42.02-.63.07-.21.04-.4.12-.56.22-.16.1-.3.23-.4.38-.1.16-.16.35-.16.57,0,.21.04.39.12.55.08.15.19.29.35.42.15.13.34.25.56.37.22.12.47.25.76.39.29.15.57.3.84.46s.5.34.69.53c.2.2.36.41.47.65.12.24.18.51.18.81,0,.41-.08.75-.24,1.03-.16.28-.37.51-.64.69-.27.18-.58.3-.93.38-.35.08-.72.12-1.11.12-.13,0-.29-.01-.48-.03-.19-.02-.39-.05-.59-.09-.2-.04-.39-.09-.57-.15-.18-.06-.32-.13-.43-.2Z"/>
      <path class="st4" d="M205.99,180.83c-.15,0-.32-.01-.52-.03-.2-.02-.41-.06-.62-.1-.21-.04-.42-.1-.61-.16-.21-.07-.38-.15-.52-.24l-.16-.11v-2.17l.62.55c.11.09.24.18.39.26.16.08.34.15.52.21.18.06.37.1.56.13.18.03.35.05.5.05.51,0,.88-.09,1.1-.25.2-.15.29-.35.29-.65,0-.15-.03-.28-.09-.39-.07-.12-.18-.24-.31-.35-.15-.12-.34-.24-.55-.35-.23-.12-.49-.25-.75-.39-.29-.15-.57-.3-.83-.45-.27-.16-.51-.35-.72-.55-.22-.21-.39-.45-.51-.72-.13-.28-.19-.6-.19-.96,0-.44.1-.83.3-1.17.19-.32.45-.6.76-.81.3-.2.65-.36,1.03-.45.37-.1.75-.14,1.14-.14.88,0,1.52.11,1.95.34l.2.11v2.03l-.59-.41c-.42-.29-.98-.44-1.66-.44-.18,0-.37.02-.55.06-.17.04-.32.09-.44.17-.12.07-.21.16-.28.27-.06.1-.09.22-.09.37s.03.28.08.37c.05.11.14.21.25.3.13.11.3.22.5.33.22.12.47.24.75.38.31.15.6.31.87.48.29.17.54.37.76.59.23.22.41.48.55.75.14.29.21.62.21.98,0,.47-.1.88-.29,1.21-.19.33-.45.61-.76.82-.31.2-.66.35-1.06.43-.38.08-.78.13-1.19.13ZM204.31,179.76c.05.02.11.04.17.06.16.05.34.1.52.14.19.04.37.07.55.09.18.02.32.03.44.03.36,0,.71-.04,1.03-.11.31-.07.58-.18.81-.33.22-.14.39-.33.52-.56.13-.22.19-.51.19-.85,0-.25-.05-.46-.14-.65-.1-.2-.23-.38-.4-.55-.18-.17-.39-.34-.63-.48-.25-.15-.52-.3-.81-.44-.29-.14-.55-.28-.77-.4-.24-.13-.45-.27-.62-.41-.19-.16-.34-.34-.44-.54-.11-.21-.16-.45-.16-.72,0-.3.07-.56.22-.78.13-.2.31-.37.52-.5.2-.12.43-.21.68-.26.23-.05.47-.07.71-.07.56,0,1.06.09,1.5.26v-.21c-.26-.09-.69-.17-1.4-.17-.32,0-.64.04-.95.12-.3.08-.57.19-.8.35-.22.15-.4.33-.53.57-.13.22-.19.48-.19.79,0,.25.04.47.12.64.09.19.2.35.35.5.16.16.36.31.58.44.24.14.5.29.78.43.27.14.53.27.77.4.25.13.48.28.67.43.21.16.37.35.49.55.13.22.2.48.2.77,0,.53-.2.96-.59,1.25-.36.27-.87.41-1.55.41-.19,0-.4-.02-.62-.06-.22-.04-.44-.09-.65-.16-.19-.06-.38-.13-.55-.22v.23Z"/>
    </g>
    <g>
      <path class="st4" d="M217.96,172.96h-2.38v7.36h-.96v-7.36h-2.37v-.87h5.71v.87Z"/>
      <path class="st4" d="M215.96,180.69h-1.71v-7.36h-2.37v-1.62h6.46v1.62h-2.38v7.36ZM215,179.94h.21v-7.36h2.38v-.12h-4.96v.12h2.37v7.36Z"/>
    </g>
  </g>
  <path class="st3" d="M128.19,79.79V0s-14.07,0-32.48,0v100.82c0,10.12-8.21,18.33-18.33,18.33h0c-10.12,0-17.75-9.59-18.33-18.33V0c-12.44,0-24.22,0-33.03,0-.17,27.17-.34,55.14-.51,82.32-.08,13.4-.09,27.7,7.17,39.93,6.43,10.84,19.3,15.6,30.81,17.89,13.27,2.65,27.31,1.05,39.72-4.45,7.79-3.46,14.61-8.99,19.12-16.46,7.15-11.82,5.88-26.17,5.88-39.44ZM50.97,128.63c-14.31-5.13-19.96-20.46-20.09-33.31-.02-2.97,0-61.52,0-90.25h22.88c-.01,16.87,0,50.13,0,50.13-.22,12.34-.25,25.98.11,38.39-.27,10.24,2.53,23.26,12.64,28.46,3.06,1.81,7.01,2.78,12.13,2.12.29-.04.53-.06.8-.1-7.71,6-18.95,7.97-28.47,4.56ZM123.22,100.83c-1.1,17.02-14.58,28.76-31.37,34.17-7.37,1.51-16.46,2.3-23.74-.45-.12-.05.12-.22.6-.51,3.22-.41,6.42-1.15,9.54-2.23,3.88-1.68,7.48-4.01,10.55-6.8,8.91-7.77,12.72-21.03,11.91-30.82V5.07h22.49c0,29.66.03,86.89.03,95.76Z"/>
</svg>
</svg>
